# xmcd
#
# Track frame offsets: 
#        150
#        16590
#        36518
#        50716
#        68844
#        91427
#        106195
#        129108
#        143973
#        164073
#        179733
#        201228
#        232886
#        257884
#        277834
#        290487
#
# Disc length: 4177 seconds
#
# Revision: 0
# Processed by: cddbd v1.5.2PL0 Copyright (c) Steve Scherf et al.
# Submitted via: ExactAudioCopy v1.0b4
#
DISCID=eb104f10
DTITLE=The Mannish Boys - Shake For Me
DYEAR=2010
DGENRE=Blues
TTITLE0=Too Tired
TTITLE1=Mona Willie And The Hand Jive
TTITLE2=Reconsider Baby
TTITLE3=Educated Ways
TTITLE4=Half Ain't Been Told
TTITLE5=Number Nine Train
TTITLE6=Last Night
TTITLE7=Hey Now
TTITLE8=You Can't Be Beat
TTITLE9=Black Nights
TTITLE10=The Bullet
TTITLE11=Those Worries
TTITLE12=Raunchy
TTITLE13=Champagne and Reefer
TTITLE14=You've Got Bad Intentions
TTITLE15=Way Down South
EXTD=
EXTT0=
EXTT1=
EXTT2=
EXTT3=
EXTT4=
EXTT5=
EXTT6=
EXTT7=
EXTT8=
EXTT9=
EXTT10=
EXTT11=
EXTT12=
EXTT13=
EXTT14=
EXTT15=
PLAYORDER=
